<?xml version="1.0" standalone="no"?>
<!DOCTYPE svg PUBLIC "-//W3C//DTD SVG 20010904//EN"
 "http://www.w3.org/TR/2001/REC-SVG-20010904/DTD/svg10.dtd">
<svg version="1.0" xmlns="http://www.w3.org/2000/svg"
 width="700.000000pt" height="700.000000pt" viewBox="0 0 700.000000 700.000000"
 preserveAspectRatio="xMidYMid meet">
<metadata>
Created by potrace 1.11, written by Peter Selinger 2001-2013
</metadata>
<g transform="translate(0.000000,700.000000) scale(0.100000,-0.100000)"
fill="#000000" stroke="none">
<path d="M3393 6708 c-55 -90 -169 -273 -253 -408 -84 -135 -160 -258 -170
-275 -10 -16 -82 -133 -161 -260 -213 -343 -240 -388 -258 -417 -18 -30 -118
-192 -138 -224 -12 -18 -6 -30 59 -120 72 -100 135 -189 179 -254 14 -19 51
-72 84 -118 33 -46 67 -93 75 -106 8 -12 57 -81 108 -154 94 -133 94 -133 88
-182 -3 -26 -8 -54 -10 -62 -3 -7 -7 -26 -9 -43 -4 -25 -25 -138 -43 -230 -2
-11 -8 -45 -14 -75 -6 -30 -12 -66 -15 -80 -3 -14 -10 -52 -15 -85 -6 -33 -13
-72 -16 -87 l-6 -28 127 0 127 0 -7 -55 c-12 -103 -52 -212 -108 -295 -31 -45
-144 -160 -158 -160 -4 0 -14 -7 -22 -15 -8 -8 -45 -28 -82 -45 -156 -71 -292
-78 -495 -25 -27 7 -104 47 -145 75 -163 113 -267 292 -279 480 -2 28 -5 52
-7 54 -2 2 -215 83 -474 181 -258 98 -564 213 -680 257 -327 125 -447 169
-452 165 -2 -3 7 -47 21 -98 22 -85 165 -612 203 -749 16 -61 63 -232 88 -325
20 -75 181 -670 246 -910 27 -99 59 -216 70 -260 12 -44 25 -91 29 -105 21
-63 101 -372 97 -376 -2 -2 -73 -4 -159 -5 l-155 0 -322 -318 c-176 -174 -321
-321 -321 -326 0 -5 144 -152 321 -325 l321 -316 2838 0 2839 1 320 318 c177
175 321 320 321 322 0 3 -145 149 -322 325 l-323 320 -115 0 c-63 -1 -143 -1
-176 -1 l-62 1 34 123 c19 67 52 185 74 262 21 77 66 239 100 360 33 121 69
249 80 285 11 36 72 254 136 485 64 231 134 483 156 560 55 196 97 349 118
425 10 36 34 123 54 194 20 71 34 131 32 133 -2 3 -78 -23 -168 -57 -90 -34
-197 -75 -238 -90 -131 -49 -504 -190 -525 -199 -11 -5 -83 -32 -160 -61 -258
-95 -300 -111 -330 -125 -16 -8 -65 -26 -107 -41 -43 -15 -78 -29 -79 -33 0
-3 -3 -26 -5 -51 -33 -341 -306 -591 -647 -591 -179 0 -343 71 -467 201 -96
102 -144 199 -173 353 l-15 77 129 0 c71 0 129 1 129 3 0 2 -16 88 -35 192
-20 105 -38 204 -41 220 -3 17 -13 75 -24 130 -10 55 -23 120 -27 145 l-9 45
120 170 c66 94 133 189 150 212 17 23 51 71 76 107 25 36 95 137 157 223 101
143 111 160 99 178 -7 11 -91 146 -186 300 -95 154 -261 422 -368 595 -229
369 -254 409 -396 640 -60 96 -114 183 -121 193 -11 15 -24 -3 -112 -145z"/>
</g>
</svg>
